<svg width="52" height="50" viewBox="0 0 52 50" fill="none" xmlns="http://www.w3.org/2000/svg">
<path d="M0 5C0 2.23858 2.23858 0 5 0H45C47.7614 0 50 2.23858 50 5V23H0V5Z" fill="#009933"/>
<path d="M0 27H50V45C50 47.7614 47.7614 50 45 50H5C2.23858 50 0 47.7614 0 45V27Z" fill="#E83103"/>
<rect y="23" width="50" height="4" fill="white"/>
<g filter="url(#filter0_d)">
<circle cx="25" cy="25" r="17" fill="#009933"/>
</g>
<circle cx="25" cy="25" r="14" fill="white"/>
<circle cx="25" cy="25" r="13" fill="#E83103"/>
<path d="M25 10.25C25.4142 10.25 25.75 9.91421 25.75 9.5C25.75 9.08579 25.4142 8.75 25 8.75C24.5858 8.75 24.25 9.08579 24.25 9.5C24.25 9.91421 24.5858 10.25 25 10.25Z" fill="#FFCC10"/>
<path d="M21.5843 10.2622C21.7861 10.2156 21.912 10.0143 21.8654 9.81248C21.8188 9.61067 21.6175 9.48484 21.4157 9.53142C14.3746 11.1565 9.125 17.4648 9.125 25C9.125 33.7675 16.2325 40.875 25 40.875C33.7675 40.875 40.875 33.7675 40.875 25C40.875 17.4648 35.6254 11.1565 28.5843 9.53142C28.3825 9.48484 28.1812 9.61067 28.1346 9.81248C28.088 10.0143 28.2139 10.2156 28.4157 10.2622C35.124 11.8105 40.125 17.8217 40.125 25C40.125 33.3533 33.3533 40.125 25 40.125C16.6467 40.125 9.875 33.3533 9.875 25C9.875 17.8217 14.876 11.8105 21.5843 10.2622Z" fill="#FFCC10"/>
<path d="M26.5 26.5C26.5 27.6046 25.6046 28.5 24.5 28.5C23.3954 28.5 22.5 27.6046 22.5 26.5C22.5 25.3954 23.3954 24.5 24.5 24.5C25.6046 24.5 26.5 25.3954 26.5 26.5Z" fill="white"/>
<path fill-rule="evenodd" clip-rule="evenodd" d="M27.1052 21.6937C26.8534 22.1971 26.816 22.7293 26.8133 23.3605C26.9632 23.284 27.106 23.1972 27.24 23.1C27.2453 23.0962 27.2505 23.093 27.2556 23.0904C27.9193 22.5971 28.6146 22.1147 29.7209 22.1147C30.5701 22.1147 31.1308 22.4364 31.5884 22.6989C31.9039 22.8799 32.1704 23.0328 32.4487 23.0328C33.3143 23.0328 33.2961 22.1169 32.5841 21.5064C32.1783 21.1584 31.6182 20.8418 30.9617 20.4729L30.9402 20.4608C30.3272 20.1165 29.6245 19.7217 29.0811 19.2482C28.5215 18.7608 28.016 18.0909 28.016 17.1836C28.016 16.2763 28.7505 15.2565 29.4587 15.6623C29.8513 15.8873 29.7703 16.2282 29.6785 16.6151C29.6353 16.7969 29.5897 16.9888 29.5897 17.1836C29.5897 17.4435 29.7203 17.7179 30.1148 18.0616C30.5191 18.4138 31.0784 18.7333 31.7326 19.1009L31.7888 19.1325C32.3912 19.4708 33.0768 19.8558 33.6085 20.3116C34.165 20.7888 34.6783 21.4497 34.6783 22.3508C34.6783 23.1864 34.1964 23.6639 33.7508 24.1054C33.72 24.1359 33.6894 24.1663 33.6591 24.1965C33.5061 24.3496 33.5799 24.6357 33.6702 24.986C33.7369 25.2447 33.8127 25.5385 33.8127 25.8393C33.8127 26.4506 33.7423 26.7946 33.6745 27.1262C33.6114 27.435 33.5504 27.733 33.5504 28.2262C33.5504 28.8048 33.6653 29.031 33.7652 29.2275C33.8419 29.3783 33.9097 29.5117 33.9097 29.7738C33.9097 30.377 32.4671 33.3672 30.4998 33.3672C29.4507 33.3672 29.2146 33.0787 29.2146 32.8426C29.2146 32.4492 29.5031 31.8721 30.0802 31.8721C30.4321 31.8721 30.6675 31.9015 30.8507 31.9243C30.9676 31.9388 31.0637 31.9508 31.1556 31.9508C31.3916 31.9508 31.8456 30.2197 31.8456 29.8525C31.8456 29.6953 31.7398 29.4708 31.6189 29.2141C31.4572 28.871 31.2684 28.4701 31.2684 28.0951C31.2285 28.066 31.1709 28.0304 31.1004 27.9868C30.6619 27.7156 29.7225 27.1347 29.4061 25.8918C29.303 27.2839 30.1805 28.0933 30.8581 28.7183L30.8933 28.7508C29.8703 30.3508 28.3436 31.741 26.6441 31.741C26.4605 31.741 25.49 31.7147 25.49 31.2426C25.49 30.8754 25.7523 30.2459 26.3556 30.2459C26.6285 30.2459 26.795 30.2672 26.9547 30.2876C27.1019 30.3065 27.2433 30.3246 27.4572 30.3246C27.9031 30.3246 28.7687 29.0329 28.7687 28.6197C28.7687 28.4829 28.6422 28.2829 28.4906 28.0433C28.2641 27.6854 27.9818 27.2392 27.9818 26.7836C27.4572 28.7508 25.8151 30.4659 23.1835 29.8507C22.7512 30.9017 22.0944 32.4987 21.0835 33.3672C20.5995 33.7829 19.9705 33.9442 19.3523 33.9442C18.2769 33.9442 18.0933 33.577 18.0933 33.4197C18.0933 33.0262 18.4028 32.4492 18.9064 32.4492C19.2752 32.4492 19.4549 32.4672 19.6038 32.4821C19.7091 32.4926 19.799 32.5016 19.9294 32.5016C20.462 32.5016 21.5029 29.6157 21.2408 28.8295C21.0835 28.3574 20.8474 27.4393 21.2408 26.2328C20.8733 26.7311 20.3749 27.6229 20.6635 28.6721C19.6942 28.6721 19.127 28.2628 18.5914 27.8763C18.1124 27.5307 17.6587 27.2033 16.9654 27.2033C16.572 27.2033 16.2833 27.3343 16.0996 27.518C16.493 27.6492 16.7556 28.0688 16.7556 28.3836C16.7556 28.6984 15.8635 28.9869 15.3651 28.4885C14.919 28.0426 14.6915 27.2033 15.0585 26.8361C15.5307 26.3639 16.596 25.7237 18.4161 25.8131C18.6603 26.4951 19.1757 27.1022 19.7195 27.5443C19.2471 26.7836 19.0111 26.0492 19.0111 25.2361C19.0111 24.9219 19.0306 24.7004 19.0503 24.4785C19.07 24.2557 19.0897 24.0325 19.0897 23.7148C19.0897 22.7705 18.5914 22.482 18.4602 22.482C18.3629 22.482 18.2436 22.5222 18.1153 22.5654C17.8469 22.656 17.5396 22.7596 17.3144 22.5344C17.2095 22.4295 17.2094 22.2459 17.2094 22.141C17.2094 22.141 16.6062 21.6712 16.6062 21.0918C16.6062 20.8098 16.98 20.6143 17.2997 20.4818C17.4559 20.417 17.591 20.361 17.6471 20.3049C17.675 20.277 17.7028 20.2437 17.7333 20.2072C17.9032 20.0034 18.155 19.7016 18.9586 19.7016C19.024 19.7016 19.0879 19.703 19.1504 19.706C19.1504 19.5967 19.3297 19.3869 19.5881 19.3869C19.9553 19.3869 20.2438 19.8066 20.2438 20.0076C20.648 20.2477 21.0189 20.6528 21.4245 21.3016C21.5785 21.548 21.7107 21.8065 21.8418 22.0629C22.0751 22.519 22.3051 22.9686 22.6484 23.3317L22.65 23.33C22.7793 23.3942 22.9146 23.4522 23.0547 23.5039C23.2368 21.9083 22.7719 20.836 22.2861 19.7155C21.8417 18.6905 21.3798 17.6252 21.3798 16.082C21.3798 14.9823 22.1932 14.3508 23.0588 14.3508C23.6621 14.3508 24.0817 14.7178 24.1604 14.9014C23.3209 14.7443 22.744 15.3398 22.744 16.0046C22.744 16.8442 23.0971 17.5313 23.54 18.3936C23.6654 18.6375 23.7979 18.8955 23.9317 19.1749C23.9507 18.9328 23.9855 18.6799 24.04 18.4141C24.2355 17.4593 25.1448 17.0765 25.8963 17.2305C26.4202 17.3378 26.7192 17.7311 26.7548 17.9045C26.0539 17.6187 25.4472 18.0332 25.3289 18.6104C25.1796 19.3394 25.3638 19.9987 25.5951 20.8261C25.6645 21.0743 25.7381 21.3377 25.8082 21.6226C25.8629 21.4864 25.9251 21.3477 25.9959 21.2062C26.3874 20.4236 27.302 20.3206 27.918 20.6288C28.3474 20.8436 28.5154 21.2542 28.506 21.4128C27.9645 21.0021 27.3419 21.2205 27.1052 21.6937ZM18.456 20.3049C18.6065 20.3049 18.757 20.3836 18.757 20.5148C18.757 20.6459 18.6065 20.7246 18.456 20.7246C18.3305 20.7246 18.18 20.6984 18.18 20.541C18.18 20.4623 18.2804 20.3049 18.456 20.3049ZM24.5 29C25.8807 29 27 27.8807 27 26.5C27 25.1193 25.8807 24 24.5 24C23.1193 24 22 25.1193 22 26.5C22 27.8807 23.1193 29 24.5 29Z" fill="white"/>
<defs>
<filter id="filter0_d" x="-2" y="0" width="54" height="54" filterUnits="userSpaceOnUse" color-interpolation-filters="sRGB">
<feFlood flood-opacity="0" result="BackgroundImageFix"/>
<feColorMatrix in="SourceAlpha" type="matrix" values="0 0 0 0 0 0 0 0 0 0 0 0 0 0 0 0 0 0 127 0"/>
<feOffset dy="2"/>
<feGaussianBlur stdDeviation="5"/>
<feColorMatrix type="matrix" values="0 0 0 0 0 0 0 0 0 0.117647 0 0 0 0 0.3125 0 0 0 0.3 0"/>
<feBlend mode="normal" in2="BackgroundImageFix" result="effect1_dropShadow"/>
<feBlend mode="normal" in="SourceGraphic" in2="effect1_dropShadow" result="shape"/>
</filter>
</defs>
</svg>
